<svg id="Layer_1" data-name="Layer 1" xmlns="http://www.w3.org/2000/svg" viewBox="0 0 2160 2160"><defs><style>.cls-1{fill:#660708;}</style></defs><path class="cls-1" d="M1077.21,699.57c49.26,0,73.73,28.47,73.73,28.47s15.38-18.24,47.09-18.24a100.77,100.77,0,0,1,31.43,5.39c56.48,18.54,87.62,119.81,87.62,119.81S1524,1006.59,1524,1140.11c0,176.56-140.34,320.32-444,320.32s-444-144-444-320.56c0-133.52,206.92-305.11,206.92-305.11S874.06,733.49,930.54,715A100.77,100.77,0,0,1,962,709.56c31.7,0,47.09,18.24,47.09,18.24s18.9-28.23,68.15-28.23m0-88c-26.85,0-52.42,5.1-75.31,14.91A163.2,163.2,0,0,0,962,621.56a188.88,188.88,0,0,0-58.86,9.78c-45.61,15-84.33,51.58-115.08,108.83a421.63,421.63,0,0,0-20,43.16,1111.8,1111.8,0,0,0-95,96.23c-34,39.18-61.46,77.37-81.58,113.52a386.68,386.68,0,0,0-30.26,68.23c-8.74,27-13.17,53.42-13.17,78.56,0,57.72,11.76,112.16,34.94,161.8,24.13,51.66,59.94,96.6,106.42,133.56s103.27,65.42,168.56,84.43c65.58,19.09,140.3,28.77,222.08,28.77s156.48-9.66,222-28.72c65.29-19,122-47.35,168.55-84.32s82.32-81.84,106.45-133.49c23.19-49.62,35-104.06,35-161.79,0-25.14-4.43-51.57-13.17-78.56a386,386,0,0,0-30.27-68.23C1548.45,957.17,1521,919,1487,879.8a1111.8,1111.8,0,0,0-95-96.23,421.63,421.63,0,0,0-20-43.16c-30.75-57.25-69.47-93.86-115.08-108.83A188.83,188.83,0,0,0,1198,621.8a162.86,162.86,0,0,0-42.14,5.49,201.56,201.56,0,0,0-78.68-15.72Z"/></svg>