<svg xmlns="http://www.w3.org/2000/svg" viewBox="0 0 1064 936.86"><defs><style>.cls-1{fill:#660708;}</style></defs><g id="Layer_2" data-name="Layer 2"><g id="Layer_1-2" data-name="Layer 1"><path class="cls-1" d="M529.21,88c49.26,0,73.73,28.47,73.73,28.47S618.32,98.23,650,98.23a100.77,100.77,0,0,1,31.43,5.39c56.48,18.54,87.62,119.81,87.62,119.81S976,395,976,528.54c0,176.56-140.34,320.32-444,320.32S88,704.82,88,528.3c0-133.52,206.92-305.11,206.92-305.11s31.14-101.27,87.62-119.81A100.77,100.77,0,0,1,414,98c31.7,0,47.09,18.24,47.09,18.24S480,88,529.21,88m0-88c-26.85,0-52.42,5.1-75.31,14.91A163.2,163.2,0,0,0,414,10a188.88,188.88,0,0,0-58.86,9.78C309.5,34.74,270.78,71.35,240,128.6a421.63,421.63,0,0,0-20,43.16A1113.27,1113.27,0,0,0,125,268c-34,39.18-61.46,77.37-81.58,113.52a386.68,386.68,0,0,0-30.26,68.23C4.43,476.73,0,503.16,0,528.3,0,586,11.76,640.46,34.94,690.1c24.13,51.66,59.94,96.6,106.42,133.56s103.27,65.42,168.56,84.43c65.58,19.09,140.3,28.77,222.08,28.77s156.48-9.66,222-28.72c65.29-19,122-47.35,168.55-84.32s82.32-81.84,106.45-133.49c23.19-49.62,35-104.05,35-161.79,0-25.14-4.43-51.57-13.17-78.56a386,386,0,0,0-30.27-68.23C1000.45,345.6,973,307.41,939,268.23A1111.8,1111.8,0,0,0,844,172a421.63,421.63,0,0,0-20-43.16C793.22,71.59,754.5,35,708.89,20A188.83,188.83,0,0,0,650,10.23a162.86,162.86,0,0,0-42.14,5.49A201.56,201.56,0,0,0,529.21,0Z"/></g></g></svg>