<svg xmlns="http://www.w3.org/2000/svg" viewBox="0 0 333.93 448.15"><defs><style>.cls-1{fill:#660708;}</style></defs><g id="Layer_2" data-name="Layer 2"><g id="Layer_1-2" data-name="Layer 1"><path class="cls-1" d="M36.67,210.34l87.2,42.55c16.8,8.23,14.18,32.83-3.94,37.38L25.82,313.74a20,20,0,0,1-24.7-17.16A172.73,172.73,0,0,1,9,221.91a20,20,0,0,1,25.29-12.55,22.45,22.45,0,0,1,2.38,1ZM75.18,419.75a174.41,174.41,0,0,0,69.52,28.11,19.94,19.94,0,0,0,23-16.28,20.25,20.25,0,0,0,.28-2.7l3.41-97c.61-18.64-22.32-27.93-34.84-14.09l-65,72.13a20,20,0,0,0,1.51,28.2,18.09,18.09,0,0,0,2.07,1.63ZM202.4,323.54l51.47,82.28a20.06,20.06,0,0,0,27.67,6.32,19.47,19.47,0,0,0,2.09-1.51,173.53,173.53,0,0,0,46.14-59.17A20.15,20.15,0,0,0,320,324.7a20.87,20.87,0,0,0-2.15-.85l-92.27-30c-17.78-5.69-33.09,13.83-23.2,29.68ZM332.23,207.8a172.84,172.84,0,0,0-44.13-60.66A20,20,0,0,0,258.34,151l-54.26,80.46c-10.42,15.49,4.11,35.54,22,30.38l93.34-26.71a20.12,20.12,0,0,0,13.63-25,19.63,19.63,0,0,0-.84-2.33ZM53.48,26.41a20,20,0,0,0-9.35,26.71c.21.44.44.87.69,1.3L136,212.36c10.24,17.68,37.3,10.41,37.3-10V20A19.84,19.84,0,0,0,153.59,0c-.6,0-1.19,0-1.79.06A280.64,280.64,0,0,0,53.48,26.41Z"/></g></g></svg>